<?xml version="1.0" encoding="UTF-8" standalone="no"?>
<!-- Created with Inkscape (http://www.inkscape.org/) -->

<svg
   xmlns:dc="http://purl.org/dc/elements/1.1/"
   xmlns:cc="http://creativecommons.org/ns#"
   xmlns:rdf="http://www.w3.org/1999/02/22-rdf-syntax-ns#"
   xmlns:svg="http://www.w3.org/2000/svg"
   xmlns="http://www.w3.org/2000/svg"
   xmlns:xlink="http://www.w3.org/1999/xlink"
   xmlns:sodipodi="http://sodipodi.sourceforge.net/DTD/sodipodi-0.dtd"
   xmlns:inkscape="http://www.inkscape.org/namespaces/inkscape"
   id="svg2985"
   version="1.1"
   inkscape:version="0.48.4 r9939"
   width="1302.9178"
   height="1281.3035"
   sodipodi:docname="pand2.svg">
  <metadata
     id="metadata2991">
    <rdf:RDF>
      <cc:Work
         rdf:about="">
        <dc:format>image/svg+xml</dc:format>
        <dc:type
           rdf:resource="http://purl.org/dc/dcmitype/StillImage" />
        <dc:title></dc:title>
      </cc:Work>
    </rdf:RDF>
  </metadata>
  <defs
     id="defs2989">
    <linearGradient
       inkscape:collect="always"
       id="linearGradient3159">
      <stop
         style="stop-color:#f2f2f2;stop-opacity:1;"
         offset="0"
         id="stop3161" />
      <stop
         style="stop-color:#f2f2f2;stop-opacity:0;"
         offset="1"
         id="stop3163" />
    </linearGradient>
    <linearGradient
       inkscape:collect="always"
       xlink:href="#linearGradient3159"
       id="linearGradient3165"
       x1="696"
       y1="2065"
       x2="664"
       y2="-1239"
       gradientUnits="userSpaceOnUse"
       gradientTransform="translate(0,-1.1091777e-5)" />
  </defs>
  <sodipodi:namedview
     pagecolor="#ffffff"
     bordercolor="#666666"
     borderopacity="1"
     objecttolerance="10"
     gridtolerance="10"
     guidetolerance="10"
     inkscape:pageopacity="0"
     inkscape:pageshadow="2"
     inkscape:window-width="1680"
     inkscape:window-height="1028"
     id="namedview2987"
     showgrid="false"
     inkscape:zoom="1"
     inkscape:cx="402.9178"
     inkscape:cy="653.91168"
     inkscape:window-x="1272"
     inkscape:window-y="-8"
     inkscape:window-maximized="1"
     inkscape:current-layer="svg2985"
     showguides="true"
     inkscape:snap-from-guide="true"
     fit-margin-top="0"
     fit-margin-left="0"
     fit-margin-right="0"
     fit-margin-bottom="0"
     borderlayer="false"
     inkscape:showpageshadow="false"
     showborder="true"
     inkscape:document-units="px" />
  <path
     style="fill:#e6e6e6;fill-opacity:1"
     d="m 2.5271823,931.48592 c -0.8393567,-4.07817 -0.701795,-6.29028 0.414298,-6.66231 2.544692,-0.84823 1.992934,-6.45054 -0.635297,-6.45054 C 1.0377824,918.37307 0,917.68121 0,916.83561 c 0,-0.8456 0.6452324,-1.53745 1.4338498,-1.53745 0.7886175,0 1.8730225,-1.38371 2.4097885,-3.07491 0.536767,-1.69121 1.967099,-3.07492 3.178517,-3.07492 3.1393637,0 3.1461797,17.75839 0.0073,18.9629 -1.207414,0.46333 -2.431631,2.78588 -2.720481,5.16123 -0.477757,3.9288 -0.638656,3.76747 -1.781769,-1.78654 z"
     id="path3037"
     inkscape:connector-curvature="0" />
  <path
     style="fill:#e6e6e6;fill-opacity:1"
     d=""
     id="path3045"
     inkscape:connector-curvature="0" />
  <path
     style="fill:#e6e6e6;fill-opacity:1"
     d="m 1273.2559,740.02824 c 0,-2.114 0.3489,-2.97882 0.7754,-1.92182 0.4265,1.057 0.4265,2.78664 0,3.84364 -0.4265,1.057 -0.7754,0.19218 -0.7754,-1.92182 z"
     id="path3047"
     inkscape:connector-curvature="0" />
  <path
     style="fill:url(#linearGradient3165);fill-opacity:1"
     d="m 641.90067,1280.9345 c -3.3824,-0.3179 -16.8735,-1.326 -29.9803,-2.2403 -72.8673,-5.083 -139.2026,-15.8219 -199.7375,-32.3353 -37.5266,-10.2369 -48.0519,-13.8186 -95.091,-32.3586 -118.4592,-46.6895 -207.6715,-108.7513 -251.692398,-175.0933 -16.7043,-25.1744 -28.6745,-49.39041 -35.4286,-71.67291 -5.866,-19.3526 -6.7032,-25.614 -4.6822,-35.0182 0.9364,-4.3576 0.8103,-5.6932 -0.4635,-4.906 -1.163,0.7188 -1.7503,-0.4962 -1.7503,-3.6213 0,-4.7191 -2.143,-6.3775 -3.5941,-2.7813 -0.4265,1.057 -0.8301,0.019 -0.8968,-2.3062 -0.069,-2.3985 0.7102,-4.2492 1.8004,-4.2769 1.105,-0.028 0.6867,-0.9839 -0.9844,-2.249 -2.7399,-2.0742 -2.9159,-5.0857 -3.0749,-52.609 -0.1969,-58.8372 0.8813,-99.7571 2.5311,-96.0614 0.6393,1.4321 0.7528,-1.4519 0.2522,-6.40896 -0.5606,-5.55119 -0.3477,-8.66516 0.5543,-8.10768 0.8279,0.51163 2.2724,-4.25912 3.323,-10.97413 1.0221,-6.53359 4.234,-23.04905 7.1375,-36.70106 2.9035,-13.65199 4.8093,-26.04591 4.2352,-27.54204 -0.6646,-1.73202 -0.4516,-2.35422 0.5863,-1.71274 1.8288,1.13023 4.2317,-8.8453 2.7199,-11.29141 -0.5137,-0.83121 -0.2782,-1.5113 0.5233,-1.5113 0.8016,0 1.3629,-0.86482 1.2474,-1.92182 -0.3413,-3.12286 6.9383,-30.32966 8.3484,-31.20112 0.7115,-0.43976 0.904,-1.81518 0.4276,-3.05651 -0.4763,-1.24131 -0.1219,-2.25694 0.7876,-2.25694 0.9108,0 1.2127,-1.14938 0.672,-2.55838 -0.7175,-1.86963 -0.4272,-2.21565 1.0782,-1.28525 1.5054,0.93039 1.7957,0.58437 1.0783,-1.28526 -0.5407,-1.409 -0.2388,-2.55838 0.6719,-2.55838 0.9096,0 1.2555,-1.03779 0.7688,-2.30619 -0.4868,-1.2684 -0.1682,-2.30618 0.7078,-2.30618 0.9244,0 1.1577,-1.37109 0.5558,-3.26745 -0.6263,-1.97306 -0.443,-2.9003 0.4625,-2.34065 0.8331,0.5149 3.7315,-5.72016 6.5214,-14.02893 6.9493,-20.69639 21.6585,-60.04484 28.1926,-75.41775 2.9925,-7.0405 5.0193,-13.89958 4.504,-15.24239 -0.5401,-1.40757 -0.2953,-2.04502 0.578,-1.50526 1.4906,0.92121 23.155898,-41.75898 24.352898,-47.97473 0.8366,-4.34398 5.7319,-12.41785 7.5291,-12.41785 0.8042,0 1.0586,-0.40358 0.5653,-0.89684 -0.4932,-0.49328 0.4136,-2.20722 2.0151,-3.80877 1.7626,-1.76258 2.5192,-3.93548 1.9168,-5.50518 -0.6323,-1.64774 -0.3914,-2.22012 0.6608,-1.56985 1.6894,1.04407 20.9035,-30.1102 20.9035,-33.89344 0,-1.09286 0.6918,-1.98703 1.5374,-1.98703 0.8456,0 1.0967,-0.44079 0.5579,-0.97955 -0.9398,-0.93986 3.5999,-8.33977 7.7194,-12.58301 1.0849,-1.11739 1.9724,-2.73396 1.9724,-3.59237 0,-3.22654 15.7032,-24.10689 25.271,-33.60261 5.4673,-5.42611 9.7591,-10.04715 9.5372,-10.26899 -1.6428,-1.64288 70.0958,-75.2264 85.6755,-87.8787 25.4449,-20.664 70.2581,-48.224 101.7526,-62.5777 36.3049,-16.5461 95.3841,-35.5138 135.9909,-43.6607 23.9839,-4.8119 66.7808,-10.5633 93.016,-12.5002 39.1604,-2.8911 89.9941,0.083 146.827,8.59 42.7167,6.3941 66.8061,12.2356 107.3597,26.0335 47.8787,16.2903 69.8182,25.7989 104.0404,45.0912 68.57653,38.659 138.49173,106.36673 187.49323,181.57349 24.4168,37.47455 53.0414,90.25678 67.6419,124.72786 20.3183,47.97089 46.4308,126.16449 57.6521,172.63926 3.9322,16.28577 4.1648,19.38851 2.5519,34.04326 -1.0996,9.99109 -0.9036,13.03333 1.0898,16.91201 3.1723,6.17287 5.6487,15.77876 5.6594,21.95348 0.011,6.56504 3.1564,13.55014 4.8977,10.87814 0.7155,-1.0979 0.9256,2.1064 0.4759,7.2593 -0.4427,5.0736 -0.2743,8.0399 0.3743,6.5917 0.6486,-1.4481 1.1377,23.4587 1.0869,55.3484 -0.095,59.7157 -0.8304,69.5822 -7.6434,102.5662 -8.9516,43.3372 -28.1324,85.06731 -55.8281,121.46041 -6.247,8.2088 -28.1046,31.5321 -50.331,53.7062 -9.8623,9.8389 -34.4386,27.0971 -65.7256,46.1543 -78.833,48.0179 -175.78763,85.5948 -269.76323,104.5527 -37.3294,7.5306 -81.7667,14.2339 -112.5563,16.979 -26.0695,2.3242 -86.6626,4.1296 -99.1659,2.9546 l 0,0 z m -122.6905,-145.5707 c 48.679,-24.1206 58.7507,-28.3031 108.8534,-45.2031 54.4403,-18.3632 71.0093,-21.7088 280.5857,-56.6572 176.86193,-29.4931 213.52093,-36.79061 221.32093,-44.05741 3.8141,-3.5534 4.0712,-9.3566 0.5695,-12.8583 -3.2244,-3.2244 -5.3115,-2.9776 -58.9202,6.9668 -22.4084,4.1567 -96.78283,16.95031 -165.27643,28.43021 -210.8229,35.3349 -229.0277,39.0559 -289.8104,59.2361 -52.1675,17.32 -90.7415,34.2811 -129.6924,57.0265 -13.3405,7.7902 -25.5906,17.8002 -25.5906,20.911 0,2.5893 6.216,9.6701 8.4891,9.6701 1.1639,0 23.426,-10.5591 49.4714,-23.4647 z m 179.5764,-284.91711 c 6.02,-1.1823 16.8593,-5.1306 24.5993,-8.9606 28.5065,-14.106 50.0067,-37.8977 61.2125,-67.7367 4.1718,-11.1085 4.6522,-14.212 4.7686,-30.8026 0.115,-16.386 -0.2725,-19.26579 -3.465,-25.74827 -6.7768,-13.761 -23.581,-24.38957 -54.0601,-34.1928 -50.1992,-16.14595 -79.9775,-15.96327 -131.0392,0.80386 -10.2166,3.35484 -22.8322,8.48013 -28.0347,11.38952 -10.0633,5.6277 -22.9337,18.14448 -25.4427,24.74351 -2.3432,6.16308 -1.8279,35.73 0.804,46.12738 4.9204,19.4389 19.7715,42.5939 37.1915,57.9868 16.5181,14.5961 40.9402,26.1095 60.9759,28.7461 11.9894,1.5778 38.5231,0.3867 52.4899,-2.3562 l 0,0 z m -293.4221,-95.94285 c 33.5059,-3.02236 60.6069,-19.01054 101.8129,-60.06449 33.5286,-33.40477 60.8692,-69.19783 77.9527,-102.05211 15.3231,-29.46881 16.4675,-33.91579 16.6456,-64.68421 l 0.1512,-26.13674 -6.6133,-12.18006 c -21.5269,-39.64702 -64.6886,-76.98128 -120.9955,-104.65943 -33.572,-16.50263 -49.6811,-20.23556 -80.7164,-18.70429 -30.0963,1.48496 -61.911,11.72821 -91.8498,29.57244 -39.0736,23.28883 -64.2204,53.23382 -73.4979,87.52187 -3.4183,12.63334 -4.7107,55.27755 -2.3585,77.81622 3.9445,37.79465 14.2457,78.30814 26.4154,103.88808 15.5536,32.69286 45.1546,60.97826 81.6738,78.04377 26.0625,12.17907 40.0706,14.46318 71.3798,11.63895 z m 545.7721,-12.32155 c 32.8558,-3.46223 65.35533,-19.35538 90.74843,-44.37853 29.3252,-28.89796 43.8455,-58.48079 54.2953,-110.61827 8.2868,-41.34544 9.9452,-91.83466 3.7719,-114.83085 -6.1245,-22.81441 -18.8151,-43.35515 -38.5459,-62.38957 -15.3474,-14.80579 -31.6178,-25.71318 -55.043,-36.89992 -31.51123,-15.04824 -60.59743,-21.2218 -90.45123,-19.19831 -22.0836,1.49683 -35.9149,5.61019 -61.8425,18.39162 -35.4172,17.4595 -60.0857,34.41997 -84.9839,58.42957 -36.1628,34.87221 -48.1887,62.2993 -43.636,99.51938 1.9451,15.90176 4.5238,23.85377 14.1487,43.63081 16.2935,33.47937 44.6711,71.41691 80.4113,107.50027 30.2463,30.53677 48.2131,43.72603 74.7576,54.87884 16.9716,7.1307 31.1093,8.62676 56.3693,5.96496 l 0,0 z"
     id="path3071"
     inkscape:connector-curvature="0" />
  <path
     style="fill:#e6e6e6;fill-opacity:1"
     d="m 1274.9383,740.79697 c -0.017,-3.3824 0.2838,-4.94714 0.6686,-3.4772 0.3848,1.46994 0.3988,4.23736 0.031,6.14982 -0.3677,1.91246 -0.6826,0.70978 -0.6996,-2.67262 z"
     id="path3081"
     inkscape:connector-curvature="0" />
  <path
     style="fill:#e6e6e6;fill-opacity:1"
     d=""
     id="path3085"
     inkscape:connector-curvature="0" />
  <path
     style="fill:#e6e6e6;fill-opacity:1"
     d=""
     id="path3087"
     inkscape:connector-curvature="0" />
  <path
     style="fill:#e6e6e6;fill-opacity:1"
     d=""
     id="path3089"
     inkscape:connector-curvature="0" />
  <path
     style="fill:#e6e6e6;fill-opacity:1"
     d=""
     id="path3091"
     inkscape:connector-curvature="0" />
  <path
     style="fill:#e6e6e6;fill-opacity:1"
     d=""
     id="path3093"
     inkscape:connector-curvature="0" />
  <path
     style="fill:#e6e6e6;fill-opacity:1"
     d=""
     id="path3095"
     inkscape:connector-curvature="0" />
  <path
     style="fill:#e6e6e6;fill-opacity:1"
     d=""
     id="path3097"
     inkscape:connector-curvature="0" />
  <path
     style="fill:#e6e6e6;fill-opacity:1"
     d="m 1277.7469,731.70036 c -0.067,-1.62074 0.2966,-2.5288 0.8075,-2.01791 0.5108,0.51088 0.5655,1.83693 0.1213,2.94679 -0.4908,1.22647 -0.8551,0.86216 -0.9288,-0.92888 z"
     id="path3101"
     inkscape:connector-curvature="0" />
  <path
     style="fill:#e6e6e6;fill-opacity:1"
     d=""
     id="path3103"
     inkscape:connector-curvature="0" />
  <path
     style="fill:#e6e6e6;fill-opacity:1"
     d="m 1272.5265,733.29057 c -0.578,-1.5062 -0.975,-5.27642 -0.8824,-8.37827 l 0.1685,-5.63971 1.3614,6.91855 c 1.4597,7.41759 1.0785,11.59716 -0.6475,7.09943 l 0,0 z"
     id="path3105"
     inkscape:connector-curvature="0" />
  <path
     style="fill:#000000"
     d="m 466.64757,1158.6907 c -1.1,-0.6611 -2.5482,-1.9097 -3.2182,-2.7746 -1.7781,-2.2954 -1.5056,-8.2417 0.4904,-10.7035 3.3768,-4.1647 11.8253,-9.6635 22.8014,-14.8408 6.1214,-2.8874 15.584,-7.9869 21.0281,-11.3323 16.1832,-9.9448 49.388,-25.644 63.9291,-30.2258 7.133,-2.2475 23.7692,-8.0544 36.9692,-12.9042 29.7406,-10.927 52.3998,-17.5946 81.5,-23.9822 27.5984,-6.0579 112.4476,-21.0721 139,-24.5964 10.725,-1.4236 34.1604,-5.2584 52.0786,-8.5219 37.0682,-6.7513 59.357,-10.3356 99.6215,-16.02 15.51,-2.1897 33.73503,-5.11281 40.50003,-6.49601 6.7649,-1.3831 23.7749,-4.5506 37.7999,-7.0388 14.025,-2.4883 30,-5.8458 35.5,-7.4611 10.5086,-3.0864 24.8164,-5.9001 30.1611,-5.9312 3.5493,-0.021 8.3389,4.6363 8.3389,8.108 0,6.2013 -6.7348,11.2244 -16.5,12.3063 -3.3,0.3657 -10.5,1.9706 -16,3.5665 -5.5,1.59591 -22.6,5.18561 -38,7.97711 -15.4,2.7916 -33.625,6.1808 -40.5,7.532 -6.875,1.351 -22.40003,3.8395 -34.50003,5.5298 -36.3878,5.0834 -70.2886,10.5291 -102.5,16.4652 -16.775,3.0914 -41.525,7.1405 -55,8.9981 -21.6065,2.9786 -97.549,15.9396 -118,20.1389 -38.4329,7.8917 -68.3619,16.2834 -96.2756,26.9943 -9.3403,3.584 -22.8868,8.3415 -30.1033,10.5723 -19.5034,6.0287 -51.4889,20.7407 -68.4091,31.4652 -2.9084,1.8434 -11.2334,6.324 -18.5,9.9569 -7.2666,3.6329 -15.357,8.1714 -17.9786,10.0855 -5.1907,3.7899 -11.0091,5.0704 -14.2334,3.1327 z m 181,-305.44808 c -18.2577,-2.55164 -40.1921,-11.48118 -54.4544,-22.16854 -21.5755,-16.16747 -37.0132,-38.62236 -44.502,-64.73062 -3.5101,-12.23745 -3.6167,-12.93405 -3.668,-23.98785 -0.038,-8.16969 0.4416,-11.86971 2.2883,-17.65869 2.1533,-6.75042 3.0442,-8.03484 11.3849,-16.41488 7.3386,-7.3732 10.5515,-9.80504 17,-12.86731 8.8961,-4.22461 25.1126,-10.35897 30.4512,-11.51907 4.2346,-0.92018 21.1771,-5.25315 33.5,-8.56745 14.7337,-3.96271 26.0249,-5.06784 36.7908,-3.60093 5.0651,0.69014 12.3592,2.11292 16.2092,3.16172 3.85,1.0488 14.2,3.70979 23,5.91332 17.8392,4.46694 31.0612,8.96604 42.9718,14.62217 6.4608,3.06813 9.7084,5.52229 17.1342,12.94805 8.0115,8.0115 9.3861,9.90402 10.9431,15.06665 5.7911,19.20206 2.4142,40.5905 -10.5146,66.59621 -10.0278,20.17058 -30.3237,40.49225 -50.5345,50.59879 -23.9265,11.96459 -51.1358,16.36287 -78,12.60843 z m -279.5,-97.8886 c -39.1405,-8.78898 -76.2142,-31.57398 -97.698,-60.04393 -14.5536,-19.2862 -20.3989,-30.44421 -27.9664,-53.3847 -5.5213,-16.73773 -13.1131,-50.79539 -15.3323,-68.78253 -0.5971,-4.83967 -1.5514,-11.9494 -2.1207,-15.7994 -0.5692,-3.85 -1.2754,-15.775 -1.5692,-26.5 -0.5018,-18.31368 -0.3739,-20.28159 2.1017,-32.34736 5.5319,-26.96236 11.4157,-40.28587 26.601,-60.23663 9.8272,-12.91126 20.6844,-22.83965 36.2639,-33.16179 27.8698,-18.46504 59.2136,-31.26082 89.22,-36.42308 10.1371,-1.74397 14.5616,-1.9757 28.5,-1.49268 23.4718,0.81338 36.3922,4.1483 60.2916,15.56202 7.0246,3.35474 12.9855,6.09952 13.2465,6.09952 0.728,0 19.711,10.95114 31.4619,18.15016 24.6934,15.12803 54.3795,41.25899 69.1285,60.84984 13.0718,17.36299 19.9356,32.74882 21.9729,49.25441 1.3168,10.6682 0.5751,28.30451 -1.5718,37.3768 -3.357,14.18568 -17.7648,45.01234 -29.5694,63.26609 -5.3305,8.24271 -18.3163,25.61383 -33.2515,44.48082 -15.9426,20.13948 -51.3714,55.09144 -67.5352,66.62619 -15.1835,10.8352 -39.1429,22.43224 -52.7418,25.52855 -10.043,2.28666 -40.8857,2.89669 -49.4317,0.9777 z m 144.9924,-111.99587 c 23.9509,-6.37349 41.0076,-28.30418 41.0076,-52.72568 0,-30.85072 -24.5273,-55.70527 -55.0399,-55.77423 -14.3142,-0.0323 -27.8505,5.72397 -38.5708,16.40232 -12.0229,11.97575 -16.9911,24.80897 -16.0985,41.5829 0.6185,11.6203 3.0837,19.06359 9.3802,28.32152 7.2776,10.70046 18.5272,18.74326 31.0203,22.1777 6.531,1.79543 21.5813,1.80366 28.3012,0.0155 z m -6.3588,-20.54528 c -6.6491,-1.99189 -13.8816,-9.09653 -16.5777,-16.28451 -0.5807,-1.5483 -1.0559,-5.39745 -1.0559,-8.55366 0,-13.40205 10.2087,-23.63788 25.6073,-25.67529 12.2215,-1.61704 24.6966,9.39921 26.1058,23.05295 0.4455,4.31702 0.064,6.30001 -2.142,11.1224 -3.4956,7.64285 -6.7359,10.98043 -14.0711,14.49351 -6.198,2.96844 -12.0857,3.57632 -17.8663,1.8446 z m 22.3256,-7.58853 c 3.9723,-3.34243 6.5949,-8.22684 5.178,-9.64369 -0.7107,-0.71067 -2.7586,0.80734 -6.5632,4.8649 -3.0416,3.24385 -5.5401,6.23541 -5.5521,6.64791 -0.049,1.68036 4.0228,0.58329 6.9373,-1.86912 z m -23.0318,-18.01574 c 1.1399,-1.44917 2.0726,-3.06762 2.0726,-3.59655 0,-0.52893 1.8,-3.0066 4,-5.50593 2.2,-2.49933 4,-5.18547 4,-5.96919 0,-6.05879 -7.5843,-7.35337 -13.3617,-2.28074 -6.1691,5.4165 -7.8928,13.5837 -3.849,18.23727 2.1615,2.4874 4.7366,2.16818 7.1381,-0.88486 z m 419.0726,146.99618 c -1.925,-0.25142 -7.3779,-1.06569 -12.1176,-1.8095 -15.3245,-2.4049 -42.8146,-15.50084 -59.6201,-28.40228 -16.1826,-12.42329 -48.5104,-44.64512 -62.8556,-62.64954 -14.2225,-17.85045 -29.0113,-37.45241 -33.9505,-45 -11.5598,-17.66443 -26.5812,-49.6313 -30.0124,-63.86879 -2.1557,-8.94471 -2.8857,-27.52984 -1.5175,-38.63121 0.8302,-6.73591 2.3365,-12.40957 5.1773,-19.5 4.8831,-12.18824 6.8524,-15.61083 16.2421,-28.22751 12.7624,-17.14865 24.5553,-28.50274 49.1361,-47.30806 27.7199,-21.20677 72.5831,-44.57265 96.9974,-50.51865 27.6228,-6.72739 53.8248,-5.16791 85.5208,5.08998 39.31703,12.72428 75.64673,35.6652 94.96063,59.96424 11.4967,14.464 18.123,26.0084 22.3856,39 8.6327,26.31131 10.175,44.49735 6.6994,79 -1.8619,18.48367 -6.7141,48.02007 -10.9246,66.5 -2.4736,10.85658 -13.6144,42.17288 -17.6264,49.54712 -19.0204,34.96007 -49.668,62.2613 -85.99463,76.60495 -18.7996,7.42308 -29.6184,9.87256 -45.5,10.30164 -7.425,0.20061 -15.075,0.15903 -17,-0.0924 z m -76.5415,-100.89251 c 18.1466,-4.7266 33.0232,-19.25942 38.6963,-37.80195 1.7613,-5.75716 2.0147,-8.59151 1.609,-18 -0.5725,-13.27502 -2.5025,-19.13325 -9.6624,-29.32862 -19.6573,-27.99086 -59.3488,-31.27603 -83.5823,-6.9179 -8.1545,8.19649 -12.8057,16.72282 -15.1642,27.79843 -5.9347,27.86971 11.8962,56.71451 39.6735,64.1792 7.2331,1.94377 21.1067,1.97834 28.4301,0.0708 z m -33.4369,-17.37196 c -7.0285,-2.49425 -14.343,-9.87085 -16.0508,-16.18697 -1.7238,-6.3757 0.2391,-16.52373 4.3756,-22.62088 4.4835,-6.6086 13.1206,-11.26096 20.9357,-11.27708 14.0907,-0.029 25.1153,10.68968 25.1868,24.48808 0.038,7.2903 -1.7965,11.30933 -8.2496,18.07498 -8.2461,8.64555 -16.419,10.99214 -26.1977,7.52187 z m 23.0111,-6.61378 c 3.1206,-1.61372 5.9673,-6.08575 5.9673,-9.37439 0,-3.53665 -1.8682,-3.27674 -4.3445,0.60444 -1.3289,2.08279 -3.5812,4.86479 -5.005,6.18224 -4.0791,3.77426 -1.9953,5.36855 3.3822,2.58771 z m -27.2058,-18.33223 c 5.9461,-6.33772 11.1731,-13.46287 11.1731,-15.2304 0,-2.63074 -4.3982,-5.28829 -7.4744,-4.51623 -3.7742,0.94728 -9.0679,6.09055 -11.421,11.09664 -2.5376,5.39852 -2.6245,7.26721 -0.4496,9.67041 2.3588,2.60645 5.0891,2.26553 8.1719,-1.02042 z M 177.72367,344.96652 c -0.2981,-0.48232 -3.1372,-1.90226 -6.3091,-3.15542 -34.5494,-13.65001 -63.1645,-36.58281 -83.433898,-66.86585 -20.1626,-30.12356 -29.8412,-62.03556 -29.8272,-98.34526 0.015,-38.9547 11.688,-74.3827 34.8449,-105.756601 7.115098,-9.6397 26.504098,-29.0296 36.149198,-36.1509 21.8988,-16.1684 47.841,-27.4195001 74.9866,-32.5214001 13.148,-2.47109999 42.2974,-2.92309999 55.4548,-0.86 50.9974,7.9969 93.7867,34.8717001 121.7086,76.4419001 15.5294,23.120201 23.8809,44.812401 28.7419,74.654401 1.6955,10.4087 1.7601,12.141 0.5049,13.5383 -0.7917,0.8812 -6.3365,3.2785 -12.3218,5.3273 -5.9854,2.0488 -13.2731,5.2653 -16.195,7.1477 -2.9219,1.8826 -6.1566,3.4228 -7.1881,3.4228 -1.0316,0 -3.0717,0.924 -4.5337,2.0533 -4.3769,3.381 -10.1762,6.9467 -11.2982,6.9467 -0.5782,0 -2.2457,0.8209 -3.7056,1.8242 -1.4599,1.0034 -4.6794,2.848 -7.1544,4.0993 -2.475,1.2512 -8.2445,4.3678 -12.8211,6.9257 -4.5766,2.5579 -9.5266,5.2703 -11,6.0275 -1.4734,0.7572 -3.8039,2.376 -5.1789,3.5973 -1.375,1.2213 -5.3472,3.918 -8.8271,5.9925 -3.48,2.0746 -6.5656,4.3933 -6.857,5.1527 -0.2914,0.7594 -1.2692,1.3956 -2.1729,1.4137 -0.9036,0.018 -3.4332,1.8203 -5.6213,4.005 -2.1881,2.1847 -4.7756,4.2253 -5.75,4.5345 -0.9744,0.3093 -1.7717,0.9756 -1.7717,1.4808 0,0.5051 -1.9125,2.1447 -4.25,3.6435 -2.3375,1.4988 -6.3682,4.6552 -8.9572,7.0142 -2.5889,2.359 -5.4155,4.2891 -6.2813,4.2891 -0.8659,0 -1.8265,0.6573 -2.1348,1.4606 -0.3082,0.8034 -5.3566,5.6302 -11.2186,10.7264 -5.8619,5.09611 -11.0433,9.88403 -11.514,10.6398 -0.4708,0.75577 -1.787,2.11641 -2.9249,3.02365 -2.4626,1.96333 -5.6089,5.0687 -7.8263,7.72461 -0.8839,1.0587 -2.4589,2.66551 -3.5,3.57069 -1.0411,0.90519 -4.1429,4.20659 -6.8929,7.33647 -2.75,3.12987 -7.7038,8.68927 -11.0085,12.35421 -6.1207,6.78794 -10.4915,12.52722 -10.4915,13.77642 0,0.38163 -2.1375,3.06883 -4.75,5.97156 -2.6125,2.90272 -7.225,8.22966 -10.25,11.83764 -5.2658,6.28064 -7.24,7.61667 -8.4239,5.70098 z M 1122.3484,329.0612 c -1.2645,-0.83985 -3.9347,-4.04491 -5.9338,-7.12237 -1.999,-3.07745 -6.4769,-8.58912 -9.9508,-12.24814 -3.4739,-3.65902 -6.3162,-7.07943 -6.3162,-7.60091 0,-1.47649 -37.0437,-38.20259 -41.2113,-40.85789 -2.0411,-1.3005 -4.7133,-3.72 -5.938,-5.3765 -1.2248,-1.6566 -2.8124,-3.0119 -3.5282,-3.0119 -0.7157,0 -3.7859,-2.25 -6.8225,-5 -3.0366,-2.75 -5.8569,-5 -6.2672,-5 -0.4104,0 -2.9931,-2.0516 -5.7395,-4.559 -2.7463,-2.5074 -6.1183,-5.3091 -7.4933,-6.226 -1.375,-0.9169 -2.8599,-2.2403 -3.2997,-2.941 -0.4398,-0.7007 -1.2641,-1.274 -1.8317,-1.274 -0.5676,0 -2.9077,-1.5155 -5.2003,-3.3678 -2.2926,-1.8523 -5.2933,-3.9473 -6.6683,-4.6555 -1.375,-0.7082 -4.3463,-2.7927 -6.60303,-4.6322 -2.2566,-1.8395 -4.5991,-3.3445 -5.2056,-3.3445 -0.6064,0 -2.6794,-1.0125 -4.6066,-2.25 -8.1882,-5.2578 -12.689,-7.8292 -23.0848,-13.1889 -12.332,-6.358 -13.6809,-7.1227 -18.1833,-10.3086 -1.7508,-1.2389 -3.8384,-2.2525 -4.6391,-2.2525 -0.8007,0 -4.4341,-1.7404 -8.0742,-3.8676 -3.6402,-2.1273 -9.6526,-4.877 -13.3609,-6.1106 -3.7084,-1.2336 -9.6675,-3.4968 -13.2425,-5.0295 -3.575,-1.5327 -9.2,-3.5755 -12.5,-4.5398 -3.3,-0.9643 -9.825,-3.0659 -14.5,-4.6703 -8.5763,-2.9433 -13.0075,-4.297 -18.5,-5.6517 -3.6403,-0.8978 -3.6703,-1.7331 -0.5569,-15.5388 11.7534,-52.118301 46.59,-96.475301 94.5569,-120.397901 26.6,-13.2663001 52.63753,-18.85110009 83.65053,-17.94230009 26.9654,0.7901 48.0195,5.86619999 71.3495,17.20200009 100.5636,48.8631 131.5492,176.203901 64.6125,265.536891 -11.2127,14.96442 -28.6369,31.39953 -43.4358,40.97013 -3.6722,2.37487 -6.6767,4.65713 -6.6767,5.07171 0,1.558 -2.5823,1.6578 -4.7992,0.18548 z"
     id="use3111"
     inkscape:connector-curvature="0" />
</svg>
